# xmcd CD database file
#
# Track frame offsets:
#	150
#	34140
#	61855
#	102335
#	135607
#	164715
#	189232
#	212842
#	233717
#
# Disc length: 3702 seconds
#
# Revision: 0
# Processed by: cddbd v1.5.2PL0 Copyright (c) Steve Scherf et al.
# Submitted via: CDex 1.51
#
DISCID=7a0e7409
DTITLE=Eric Clapton - Live in Concert
DYEAR=1900
DGENRE=Blues
TTITLE0=ANything for Your Love
TTITLE1=Pretending
TTITLE2=I short the Sheriff
TTITLE3=Running On Faith
TTITLE4=My Father's Eyes
TTITLE5=She's Waiting
TTITLE6=Tears in Heaven
TTITLE7=Circus Has Left Town
TTITLE8=Before You Accuse Me
EXTD=
EXTT0=
EXTT1=
EXTT2=
EXTT3=
EXTT4=
EXTT5=
EXTT6=
EXTT7=
EXTT8=
PLAYORDER=
